<?xml version="1.0" encoding="UTF-8"?>
<svg version="1.1" xmlns="http://www.w3.org/2000/svg" width="225" height="225">
<path d="M0 0 C74.25 0 148.5 0 225 0 C225 74.25 225 148.5 225 225 C150.75 225 76.5 225 0 225 C0 150.75 0 76.5 0 0 Z " fill="#FCFCFC" transform="translate(0,0)"/>
<path d="M0 0 C1.1653125 0.00515625 2.330625 0.0103125 3.53125 0.015625 C4.6965625 0.01046875 5.861875 0.0053125 7.0625 0 C10.03125 0.265625 10.03125 0.265625 12.03125 2.265625 C12.17622985 4.84626629 12.21802545 7.31506384 12.15625 9.890625 C12.14722656 10.59703125 12.13820312 11.3034375 12.12890625 12.03125 C12.10532603 13.77618598 12.06945461 15.52094795 12.03125 17.265625 C13.17464844 17.25402344 14.31804687 17.24242188 15.49609375 17.23046875 C16.98697754 17.22109212 18.47786309 17.21199179 19.96875 17.203125 C20.72349609 17.19474609 21.47824219 17.18636719 22.25585938 17.17773438 C24.18119313 17.16910059 26.10660581 17.21338167 28.03125 17.265625 C29.03125 18.265625 29.03125 18.265625 29.12890625 21.64453125 C29.12223369 23.03909577 29.11027532 24.43364243 29.09375 25.828125 C29.08923828 26.53904297 29.08472656 27.24996094 29.08007812 27.98242188 C29.06825864 29.74352513 29.05032263 31.50458536 29.03125 33.265625 C25.96591836 34.79829082 22.76370728 34.36838971 19.40625 34.328125 C18.69984375 34.32361328 17.9934375 34.31910156 17.265625 34.31445312 C15.52079725 34.30266375 13.776013 34.28472824 12.03125 34.265625 C12.04285156 35.40902344 12.05445313 36.55242187 12.06640625 37.73046875 C12.07578288 39.22135254 12.08488321 40.71223809 12.09375 42.203125 C12.10212891 42.95787109 12.11050781 43.71261719 12.11914062 44.49023438 C12.12777441 46.41556813 12.08349333 48.34098081 12.03125 50.265625 C10.27565058 52.02122442 7.99542558 51.39784419 5.66015625 51.40234375 C4.95761719 51.39847656 4.25507812 51.39460938 3.53125 51.390625 C2.82871094 51.39449219 2.12617187 51.39835937 1.40234375 51.40234375 C-3.84213622 51.39223878 -3.84213622 51.39223878 -4.96875 50.265625 C-5.04194621 47.56907646 -5.06117537 44.89871042 -5.03125 42.203125 C-5.02673828 41.44451172 -5.02222656 40.68589844 -5.01757812 39.90429688 C-5.0057568 38.02470629 -4.98782078 36.14515601 -4.96875 34.265625 C-6.02835938 34.28882813 -7.08796875 34.31203125 -8.1796875 34.3359375 C-9.5677013 34.35469444 -10.9557227 34.37289472 -12.34375 34.390625 C-13.04242188 34.40738281 -13.74109375 34.42414063 -14.4609375 34.44140625 C-16.29772486 34.45906767 -18.13476963 34.36865761 -19.96875 34.265625 C-21.96875 32.265625 -21.96875 32.265625 -22.1640625 29.0078125 C-22.14085938 27.73164062 -22.11765625 26.45546875 -22.09375 25.140625 C-22.07570313 23.85929687 -22.05765625 22.57796875 -22.0390625 21.2578125 C-22.01585938 20.27039063 -21.99265625 19.28296875 -21.96875 18.265625 C-18.90341836 16.73295918 -15.70120728 17.16286029 -12.34375 17.203125 C-11.28414062 17.20989258 -11.28414062 17.20989258 -10.203125 17.21679688 C-8.45829725 17.22858625 -6.713513 17.24652176 -4.96875 17.265625 C-4.99195312 16.20601562 -5.01515625 15.14640625 -5.0390625 14.0546875 C-5.05781944 12.6666737 -5.07601972 11.2786523 -5.09375 9.890625 C-5.11050781 9.19195312 -5.12726563 8.49328125 -5.14453125 7.7734375 C-5.16219267 5.93665014 -5.07178261 4.09960537 -4.96875 2.265625 C-2.96875 0.265625 -2.96875 0.265625 0 0 Z " fill="#27A7E2" transform="translate(108.96875,67.734375)"/>
<path d="M0 0 C5.27109687 3.8000931 8.83873853 7.78179434 11 14 C12.36796982 22.81457973 11.022719 29.69587731 6 37 C-2.73480554 47.31264283 -12.60170485 56.65331837 -22.25878906 66.08740234 C-38.18676389 80.80568313 -38.18676389 80.80568313 -44.42993164 100.68945312 C-44.4324292 101.53443359 -44.43492676 102.37941406 -44.4375 103.25 C-44.44064209 104.12591797 -44.44378418 105.00183594 -44.44702148 105.90429688 C-44.28639521 114.84770934 -41.92891159 122.62619374 -39 131 C-38.64496135 132.32771851 -38.29777998 133.65827873 -38 135 C-47.27152159 126.68619603 -51.6380414 112.38862897 -52.3125 100.30859375 C-52.36479244 98.62269191 -52.40644152 96.93642666 -52.4375 95.25 C-52.45997803 94.45762939 -52.48245605 93.66525879 -52.50561523 92.84887695 C-52.46127571 81.98342047 -46.2598252 75.43919371 -39 68 C-38.38946777 67.37432129 -37.77893555 66.74864258 -37.14990234 66.10400391 C-35.08640891 63.99947082 -33.0143794 61.90382223 -30.9375 59.8125 C-30.27717773 59.14734375 -29.61685547 58.4821875 -28.93652344 57.796875 C-25.06736901 53.94113518 -21.08497473 50.28390935 -16.95288086 46.71264648 C-2.4901143 34.37004038 -2.4901143 34.37004038 5 17.5 C5.41453156 11.10276969 2.87047208 5.57799159 0 0 Z " fill="#C62723" transform="translate(149,68)"/>
<path d="M0 0 C1.01940575 15.71583866 -4.17766927 27.97611238 -14 40 C-13.24074219 39.50628906 -12.48148438 39.01257813 -11.69921875 38.50390625 C-10.70535156 37.86324219 -9.71148437 37.22257812 -8.6875 36.5625 C-7.70136719 35.92441406 -6.71523437 35.28632813 -5.69921875 34.62890625 C-2.07932993 32.44440026 0.52108845 31.8759305 4.66796875 31.90234375 C5.56064453 31.90556641 6.45332031 31.90878906 7.37304688 31.91210938 C8.76620117 31.92467773 8.76620117 31.92467773 10.1875 31.9375 C11.12787109 31.94201172 12.06824219 31.94652344 13.03710938 31.95117188 C15.35813712 31.96295374 17.67903644 31.97940442 20 32 C12.39438684 41.2704512 3.9872098 47.55543387 -8 50 C-12.36176944 50.32972339 -16.64202787 50.4121493 -21 50 C-24.49368795 46.50631205 -23.10887298 35.20390643 -23.11962891 30.47460938 C-22.87301199 25.37316223 -21.07002713 21.9596787 -18 18 C-17.10861328 16.74896484 -17.10861328 16.74896484 -16.19921875 15.47265625 C-4.58890977 0 -4.58890977 0 0 0 Z " fill="#67B537" transform="translate(152,118)"/>
<path d="M0 0 C3.71346662 2.46781009 5.91154241 4.94029664 7.9140625 8.98046875 C8.72358584 14.333533 8.82583709 20.05324951 6.3515625 24.98046875 C2.77275284 29.38515756 -0.21371188 31.57551834 -5.7734375 32.359375 C-11.71186599 32.60949903 -15.52038685 32.10059983 -20.0859375 27.98046875 C-24.87263561 22.54691954 -25.50762951 19.19175192 -25.421875 12.03125 C-24.92494416 7.5184246 -23.47647206 4.95028004 -20.0859375 1.98046875 C-13.95971308 -2.69230553 -6.99224547 -3.41755818 0 0 Z " fill="#21A5E1" transform="translate(121.0859375,21.01953125)"/>
<path d="M0 0 C9.73945319 8.14933839 18.77164763 16.62258373 23 29 C23.13525391 31.49536133 23.13525391 31.49536133 22.9765625 34.08203125 C22.925 35.01337891 22.8734375 35.94472656 22.8203125 36.90429688 C22.75585938 37.86400391 22.69140625 38.82371094 22.625 39.8125 C22.53992188 41.28106445 22.53992188 41.28106445 22.453125 42.77929688 C22.31218662 45.18699413 22.16083172 47.59356337 22 50 C6.321639 51.01697477 -5.6135794 45.85748273 -17.6875 36.125 C-18.8321875 35.073125 -18.8321875 35.073125 -20 34 C-20 33.67 -20 33.34 -20 33 C-7.53435676 32.50631116 1.71550118 33.2804595 13 39 C12.31164062 38.09121094 12.31164062 38.09121094 11.609375 37.1640625 C3.20924963 25.69330306 -0.45819939 14.20418122 0 0 Z " fill="#67B536" transform="translate(73,117)"/>
<path d="M0 0 C0.47087849 23.64856411 -9.11365878 45.45734389 -25.26953125 62.46484375 C-36.6791737 73.05834582 -53.0224814 82.53030429 -68.9140625 83.10546875 C-69.60242188 83.07066406 -70.29078125 83.03585938 -71 83 C-69.67233432 79.01700296 -68.22628626 76.69571759 -65 74 C-61.8203125 72.83203125 -61.8203125 72.83203125 -58.125 71.8125 C-49.73723268 69.2794685 -43.06416557 65.09935885 -36 60 C-35.30261719 59.50757813 -34.60523438 59.01515625 -33.88671875 58.5078125 C-20.12282309 47.81310737 -12.09483907 29.28900756 -9.62890625 12.46875 C-8.73040198 6.91099164 -7.045811 4.43847039 -2.55859375 0.99609375 C-1 0 -1 0 0 0 Z " fill="#182B3F" transform="translate(193,116)"/>
<path d="M0 0 C6.42701927 3.75779317 6.42701927 3.75779317 7.87207031 6.890625 C8.41216479 9.0881796 8.79437131 11.26142711 9.125 13.5 C9.42760325 15.11856792 9.73756167 16.73577723 10.0546875 18.3515625 C10.20776367 19.14336914 10.36083984 19.93517578 10.51855469 20.75097656 C14.05213956 37.25776349 24.65061599 51.44739847 38.13671875 61.2890625 C46.31688553 66.55831348 54.92756741 70.2400854 64.26171875 72.9453125 C67 74 67 74 68.875 77 C70 80 70 80 70 82 C51.73569507 81.91219084 35.57783301 71.37364741 23 59 C22.2265625 58.23945313 21.453125 57.47890625 20.65625 56.6953125 C7.74180541 43.20590976 -0.25427378 24.91883038 -0.0625 6.125 C-0.05347656 4.97257812 -0.04445312 3.82015625 -0.03515625 2.6328125 C-0.02355469 1.76398438 -0.01195312 0.89515625 0 0 Z " fill="#172B3F" transform="translate(33,117)"/>
<path d="M0 0 C0.43570312 0.58265625 0.87140625 1.1653125 1.3203125 1.765625 C1.87460937 2.50296875 2.42890625 3.2403125 3 4 C3.45117188 4.61359375 3.90234375 5.2271875 4.3671875 5.859375 C8.71435835 11.31023171 13.68580299 14.48853525 19.65625 18.0078125 C31.15801241 24.86049805 41.97133503 33.19976189 47 46 C46.505 46.99 46.505 46.99 46 48 C45.56171875 47.5153125 45.1234375 47.030625 44.671875 46.53125 C39.08292614 40.62423088 32.87295071 36.30704911 26 32 C30.21515127 36.34543777 34.73402975 40.06785639 39.4765625 43.81640625 C41.71463305 45.75306482 43.35133748 47.56020076 45 50 C33.50436804 50 22.3814554 44.59601401 13.9375 36.875 C5.07251612 27.02690127 -0.33099105 13.23964184 0 0 Z " fill="#68B537" transform="translate(21,76)"/>
<path d="M0 0 C2.63639589 6.73745616 -1.69229807 16.77433524 -4.2890625 23.1796875 C-10.7613702 35.94351217 -20.95544931 42.95190312 -34 48 C-37.3289962 48.96313095 -40.5512123 49.6683858 -44 50 C-39.57686311 44.50096494 -34.64410583 39.82322555 -29.390625 35.13671875 C-27.89138549 33.7967122 -26.42185384 32.42185384 -25 31 C-32.54959322 36.20408853 -39.78396121 41.19195752 -46 48 C-46 44.23764579 -44.84727902 42.82427021 -42.8125 39.6875 C-42.22082031 38.76324219 -41.62914062 37.83898437 -41.01953125 36.88671875 C-37.18538539 31.40618917 -33.44927147 27.29465965 -27.875 23.5625 C-27.02893188 22.99063965 -27.02893188 22.99063965 -26.16577148 22.40722656 C-22.50905451 19.95060233 -18.79327765 17.59258132 -15.0625 15.25 C-8.24543253 10.92988166 -3.71507321 7.28725898 0 0 Z " fill="#66B436" transform="translate(203,77)"/>
<path d="M0 0 C0 3 0 3 -0.97265625 4.8359375 C-3.38788757 9.92353504 -2.79381251 16.37964804 -1.1953125 21.65625 C1.93370911 28.47535916 6.79930268 33.68253401 12 39 C12.91845703 39.9590625 12.91845703 39.9590625 13.85546875 40.9375 C17.36489833 44.53526763 21.06292377 47.87414011 24.8671875 51.15625 C27.26432953 53.22850464 29.63334823 55.33051222 32 57.4375 C32.763125 58.11683594 33.52625 58.79617187 34.3125 59.49609375 C34.869375 59.99238281 35.42625 60.48867187 36 61 C34.50902342 64.7952131 32.24299151 66.61042731 29 69 C21.50017318 62.23059109 14.17537836 55.30058533 7 48.1875 C6.28271729 47.48310791 5.56543457 46.77871582 4.82641602 46.05297852 C-3.30010243 37.94174805 -8.89130416 30.27908704 -9.5 18.5 C-9.30309651 11.48039053 -6.30372451 6.55277581 -1.6875 1.4375 C-1.130625 0.963125 -0.57375 0.48875 0 0 Z " fill="#C62824" transform="translate(74,69)"/>
<path d="M0 0 C0.33 0 0.66 0 1 0 C1 4.62 1 9.24 1 14 C-2.06533164 15.53266582 -5.26754272 15.10276471 -8.625 15.0625 C-9.33140625 15.05798828 -10.0378125 15.05347656 -10.765625 15.04882812 C-12.51045275 15.03703875 -14.255237 15.01910324 -16 15 C-15.98839844 16.14339844 -15.97679687 17.28679687 -15.96484375 18.46484375 C-15.95546712 19.95572754 -15.94636679 21.44661309 -15.9375 22.9375 C-15.92912109 23.69224609 -15.92074219 24.44699219 -15.91210938 25.22460938 C-15.90347559 27.14994313 -15.94775667 29.07535581 -16 31 C-17.75559942 32.75559942 -20.03582442 32.13221919 -22.37109375 32.13671875 C-23.07363281 32.13285156 -23.77617188 32.12898438 -24.5 32.125 C-25.20253906 32.12886719 -25.90507813 32.13273437 -26.62890625 32.13671875 C-31.87338622 32.12661378 -31.87338622 32.12661378 -33 31 C-33.07319621 28.30345146 -33.09242537 25.63308542 -33.0625 22.9375 C-33.05798828 22.17888672 -33.05347656 21.42027344 -33.04882812 20.63867188 C-33.0370068 18.75908129 -33.01907078 16.87953101 -33 15 C-34.60681641 15.01740234 -34.60681641 15.01740234 -36.24609375 15.03515625 C-37.64322743 15.04453299 -39.04036299 15.05363331 -40.4375 15.0625 C-41.14455078 15.07087891 -41.85160156 15.07925781 -42.58007812 15.08789062 C-44.38693559 15.09653588 -46.19387603 15.05220011 -48 15 C-48.33 14.67 -48.66 14.34 -49 14 C-49 12.35 -49 10.7 -49 9 C-32.83 9 -16.66 9 0 9 C0 6.03 0 3.06 0 0 Z " fill="#1693DC" transform="translate(137,87)"/>
<path d="M0 0 C4 4.10810811 4 4.10810811 4 7 C3.26136719 7.21914063 2.52273437 7.43828125 1.76171875 7.6640625 C-19.22304988 14.22346921 -33.88120567 27.19457937 -45 46 C-47.96175123 45.38722388 -49.38058783 44.74627478 -52 43 C-50.03667855 36.22753259 -46.29688737 31.49387742 -42 26 C-41.401875 25.22140625 -40.80375 24.4428125 -40.1875 23.640625 C-32.6221449 14.44480543 -22.60731884 7.94280121 -11.9375 2.875 C-11.31866943 2.57964355 -10.69983887 2.28428711 -10.06225586 1.97998047 C-6.61160681 0.43282856 -3.78380098 -0.5615535 0 0 Z " fill="#416E9D" transform="translate(93,46)"/>
<path d="M0 0 C14.48565283 0.72428264 28.41966294 11.99630926 38 22 C51 37.68188976 51 37.68188976 51 44 C46.77777778 47 46.77777778 47 44 47 C42.91306077 45.24764922 41.90705729 43.4449255 40.9375 41.625 C30.68489014 23.56594237 15.28854979 13.28128567 -4 7 C-2.92598892 4.08482708 -2.22189824 2.22189824 0 0 Z " fill="#426F9D" transform="translate(133,46)"/>
<path d="M0 0 C5.66839554 10.5837939 5.66839554 10.5837939 6 16 C6.061875 16.7528125 6.12375 17.505625 6.1875 18.28125 C6.77662127 30.80007691 2.62740397 43.44585918 -4 54 C-5.29003485 55.3752693 -6.61249399 56.72313563 -8 58 C-7.80664062 57.29875 -7.61328125 56.5975 -7.4140625 55.875 C-7.15367188 54.92625 -6.89328125 53.9775 -6.625 53 C-6.36976562 52.071875 -6.11453125 51.14375 -5.8515625 50.1875 C-5.57054688 49.135625 -5.28953125 48.08375 -5 47 C-4.64421875 45.74832031 -4.2884375 44.49664062 -3.921875 43.20703125 C-2.80846236 38.69444163 -2.61702003 34.32151512 -2.625 29.6875 C-2.62415405 28.44226563 -2.62415405 28.44226563 -2.62329102 27.171875 C-2.74241598 20.49566958 -4.10793917 15.03964511 -7 9 C-7.33 8.01 -7.66 7.02 -8 6 C-7.0479279 4.99403703 -6.08812654 3.99538437 -5.125 3 C-4.59132813 2.443125 -4.05765625 1.88625 -3.5078125 1.3125 C-2 0 -2 0 0 0 Z " fill="#C62A25" transform="translate(123,144)"/>
<path d="M0 0 C0.33 0.66 0.66 1.32 1 2 C-2.26693415 10.42839175 -6.42328237 16.72363074 -14.47265625 20.99609375 C-18.56020095 22.61973979 -22.63459988 22.89975073 -27 23 C-24.4348594 20.34324723 -21.98656717 18.23992538 -19 16 C-22.3 18.31 -25.6 20.62 -29 23 C-29.66 22.67 -30.32 22.34 -31 22 C-30.1604059 20.61605367 -29.30230512 19.24333395 -28.4375 17.875 C-27.96183594 17.10929687 -27.48617187 16.34359375 -26.99609375 15.5546875 C-21.91276055 9.04881683 -16.25779735 5.85338907 -8.5625 3.125 C-7.73556641 2.81820312 -6.90863281 2.51140625 -6.05664062 2.1953125 C-4.04262968 1.45024487 -2.02196607 0.72320056 0 0 Z " fill="#68B437" transform="translate(179,125)"/>
<path d="M0 0 C11.64657937 2.35409583 24.70565862 6.38212385 31.8125 16.625 C32.23144531 17.21539062 32.65039062 17.80578125 33.08203125 18.4140625 C34 20 34 20 34 22 C30.66666667 20.33333333 27.33333333 18.66666667 24 17 C25.65 18.65 27.3 20.3 29 22 C20.16672556 21.71505566 13.83398289 19.00680015 7.66015625 12.5546875 C4.34469574 8.53776428 1.75846255 4.93248745 0 0 Z " fill="#69B539" transform="translate(44,126)"/>
<path d="M0 0 C8.6157722 0.19069114 13.10572063 2.10572063 19.125 8.125 C20.61079543 13.00689927 18.80410642 17.3608692 17 22 C15.80744693 24.21594968 14.55851693 26.01154737 13 28 C13 26.15870499 13.01902697 24.31714314 13.0703125 22.4765625 C13.08835937 21.53554688 13.10640625 20.59453125 13.125 19.625 C13.14820312 18.68914063 13.17140625 17.75328125 13.1953125 16.7890625 C12.98456394 13.77957313 12.36293099 11.68341776 11 9 C8.78223378 7.69485264 8.78223378 7.69485264 6 7 C4.741875 6.62875 3.48375 6.2575 2.1875 5.875 C0.6096875 5.441875 0.6096875 5.441875 -1 5 C-0.34 4.01 0.32 3.02 1 2 C0.67 1.34 0.34 0.68 0 0 Z " fill="#32AAE0" transform="translate(109,19)"/>
<path d="M0 0 C0.66 0.33 1.32 0.66 2 1 C-2.455 3.97 -2.455 3.97 -7 7 C-4.03 7 -1.06 7 2 7 C2 7.33 2 7.66 2 8 C4.475 8.495 4.475 8.495 7 9 C7 9.33 7 9.66 7 10 C6.03320312 10.01417969 5.06640625 10.02835938 4.0703125 10.04296875 C-4.9267611 10.37256452 -12.87394043 11.16880226 -19.765625 17.6640625 C-20.17296875 18.10492188 -20.5803125 18.54578125 -21 19 C-21.66 18.67 -22.32 18.34 -23 18 C-22.44570312 17.25234375 -21.89140625 16.5046875 -21.3203125 15.734375 C-20.59585938 14.74953125 -19.87140625 13.7646875 -19.125 12.75 C-18.40570313 11.77546875 -17.68640625 10.8009375 -16.9453125 9.796875 C-15.39017775 7.56097846 -14.11795777 5.47127507 -13 3 C-12.01 3.33 -11.02 3.66 -10 4 C-10 4.99 -10 5.98 -10 7 C-6.7 4.69 -3.4 2.38 0 0 Z " fill="#E6F2DC" transform="translate(160,140)"/>
<path d="M0 0 C0.268125 0.5775 0.53625 1.155 0.8125 1.75 C2.01719859 4.0325868 3.40798115 5.9737942 5 8 C3.50902342 11.7952131 1.24299151 13.61042731 -2 16 C-3.98 14.02 -5.96 12.04 -8 10 C-6.34908222 5.70761377 -3.26245434 3.1206085 0 0 Z " fill="#971A11" transform="translate(114,132)"/>
<path d="M0 0 C2.28374911 2.28374911 3.47452482 4.52998879 5 7.375 C5.515625 8.33148438 6.03125 9.28796875 6.5625 10.2734375 C7.73781255 12.5026988 8.88592099 14.73970508 10 17 C9.18015625 16.57847656 8.3603125 16.15695313 7.515625 15.72265625 C6.43796875 15.17480469 5.3603125 14.62695312 4.25 14.0625 C2.64898437 13.24458984 2.64898437 13.24458984 1.015625 12.41015625 C-3.64909928 10.22885383 -7.61237508 9.79713374 -12.75 9.4375 C-13.92046875 9.35371094 -15.0909375 9.26992187 -16.296875 9.18359375 C-17.63492188 9.09271484 -17.63492188 9.09271484 -19 9 C-19 8.67 -19 8.34 -19 8 C-18.24074219 7.93941406 -17.48148438 7.87882813 -16.69921875 7.81640625 C-15.70535156 7.73261719 -14.71148437 7.64882812 -13.6875 7.5625 C-12.70136719 7.48128906 -11.71523437 7.40007812 -10.69921875 7.31640625 C-7.90624401 7.08187441 -7.90624401 7.08187441 -5 6 C-6.65 4.35 -8.3 2.7 -10 1 C-5.89041233 2.45044271 -2.56741255 4.51110752 1 7 C0.4740625 5.824375 0.4740625 5.824375 -0.0625 4.625 C-0.5265625 3.325625 -0.5265625 3.325625 -1 2 C-0.67 1.34 -0.34 0.68 0 0 Z " fill="#E7F3DD" transform="translate(77,141)"/>
<path d="M0 0 C6.09940955 -0.42064893 9.13663653 -0.08964656 14 4 C17.23458461 6.97922267 18.28326323 9.13166285 18.5 13.4375 C18.31503317 18.04625691 16.89000222 20.47780979 14 24 C14 22.15870499 14.01902697 20.31714314 14.0703125 18.4765625 C14.08835937 17.53554688 14.10640625 16.59453125 14.125 15.625 C14.14820312 14.68914063 14.17140625 13.75328125 14.1953125 12.7890625 C13.98456394 9.77957313 13.36293099 7.68341776 12 5 C9.78223378 3.69485264 9.78223378 3.69485264 7 3 C5.741875 2.62875 4.48375 2.2575 3.1875 1.875 C2.135625 1.58625 1.08375 1.2975 0 1 C0 0.67 0 0.34 0 0 Z " fill="#D7EEF5" transform="translate(108,23)"/>
<path d="M0 0 C9.22838388 3.27566058 16.87076114 10.46316208 24 17 C23.67 17.66 23.34 18.32 23 19 C22.01 19 21.02 19 20 19 C18.63417472 17.35985463 17.30627227 15.68795981 16 14 C14.22532961 12.45542845 12.41059492 10.95591944 10.5625 9.5 C6.79603454 6.52454467 3.34353566 3.44669375 0 0 Z " fill="#EFF7E8" transform="translate(45,107)"/>
<path d="M0 0 C2.08229108 3.12343663 2.23770457 3.53852922 1.9765625 7.01171875 C1.925 7.76904297 1.8734375 8.52636719 1.8203125 9.30664062 C1.75585938 10.09232422 1.69140625 10.87800781 1.625 11.6875 C1.56828125 12.48478516 1.5115625 13.28207031 1.453125 14.10351562 C1.31183972 16.06973581 1.15720094 18.03498824 1 20 C-2.63 19.67 -6.26 19.34 -10 19 C-10 18.67 -10 18.34 -10 18 C-7.03 18 -4.06 18 -1 18 C-1.01160156 17.03578125 -1.02320312 16.0715625 -1.03515625 15.078125 C-1.04417969 13.81484375 -1.05320312 12.5515625 -1.0625 11.25 C-1.07410156 9.99703125 -1.08570312 8.7440625 -1.09765625 7.453125 C-1.02021027 4.71463499 -0.82780815 2.58119707 0 0 Z " fill="#DEDBC5" transform="translate(96,149)"/>
<path d="M0 0 C1.65 0.33 3.3 0.66 5 1 C4.26043955 2.58823638 3.50784063 4.17040447 2.75 5.75 C2.12351562 7.07257813 2.12351562 7.07257813 1.484375 8.421875 C-0.05144699 11.0893553 -1.73772367 12.93108062 -4 15 C-3.79503906 14.25234375 -3.59007813 13.5046875 -3.37890625 12.734375 C-3.10949219 11.74953125 -2.84007813 10.7646875 -2.5625 9.75 C-2.29566406 8.77546875 -2.02882813 7.8009375 -1.75390625 6.796875 C-1.14455416 4.53627347 -0.55761745 2.27377991 0 0 Z " fill="#C73B37" transform="translate(119,187)"/>
<path d="M0 0 C2.3125 0.1875 2.3125 0.1875 5 1 C6.8125 3.5625 6.8125 3.5625 8 6 C7.01 6.495 7.01 6.495 6 7 C4.0546875 6.22265625 4.0546875 6.22265625 1.875 5.0625 C1.15054688 4.68222656 0.42609375 4.30195313 -0.3203125 3.91015625 C-0.87460938 3.60980469 -1.42890625 3.30945313 -2 3 C-1.34 2.01 -0.68 1.02 0 0 Z " fill="#89C361" transform="translate(79,154)"/>
<path d="M0 0 C0.33 0 0.66 0 1 0 C1.51211281 6.40141012 1.11888494 9.98010898 -3 15 C-3 12.37165722 -2.80210238 9.91813299 -2.5 7.3125 C-2.4071875 6.50425781 -2.314375 5.69601563 -2.21875 4.86328125 C-2.1465625 4.24839844 -2.074375 3.63351563 -2 3 C-1.34 3 -0.68 3 0 3 C0 2.01 0 1.02 0 0 Z " fill="#C7E8F3" transform="translate(125,32)"/>
<path d="M0 0 C1.90389849 2.85584773 2.69462177 4.9311762 3.625 8.1875 C3.88539062 9.08855469 4.14578125 9.98960937 4.4140625 10.91796875 C4.60742188 11.60503906 4.80078125 12.29210937 5 13 C1.66442368 10.0094833 -0.15083921 7.06815373 -2 3 C-1.34 2.01 -0.68 1.02 0 0 Z " fill="#C03532" transform="translate(106,190)"/>
<path d="M0 0 C0.66 0 1.32 0 2 0 C2 0.99 2 1.98 2 3 C2.66 3.66 3.32 4.32 4 5 C-2.625 8.125 -2.625 8.125 -6 7 C-5.34 7 -4.68 7 -4 7 C-4 6.34 -4 5.68 -4 5 C-3.01 5 -2.02 5 -1 5 C-0.67 3.35 -0.34 1.7 0 0 Z " fill="#8CC565" transform="translate(145,153)"/>
<path d="M0 0 C4.10958767 1.45044271 7.43258745 3.51110752 11 6 C9.234375 6.6796875 9.234375 6.6796875 7 7 C5.078125 5.8203125 5.078125 5.8203125 3.25 4.125 C2.63640625 3.57070312 2.0228125 3.01640625 1.390625 2.4453125 C0 1 0 1 0 0 Z " fill="#E2F1D7" transform="translate(45,107)"/>
<path d="M0 0 C2.31 1.65 4.62 3.3 7 5 C6.67 5.66 6.34 6.32 6 7 C5.01 7 4.02 7 3 7 C0.8125 4 0.8125 4 -1 1 C-0.67 0.67 -0.34 0.34 0 0 Z " fill="#E8F3DE" transform="translate(62,119)"/>
<path d="M0 0 C0.66 0.33 1.32 0.66 2 1 C0.50902342 4.7952131 -1.75700849 6.61042731 -5 9 C-3.7508258 5.54074837 -2.32472205 2.85306797 0 0 Z " fill="#82BE5A" transform="translate(161,116)"/>
<path d="M0 0 C0.66 0.33 1.32 0.66 2 1 C0.7191375 4.64553172 -0.16671013 6.16671013 -3 9 C-2.01 6.03 -1.02 3.06 0 0 Z " fill="#BC2825" transform="translate(118,193)"/>
</svg>
